HIERARCHY
ROOT Hips
{
  OFFSET 5.80788e-005 67.184 3.4734
  CHANNELS 6 Xposition Yposition Zposition Zrotation Xrotation Yrotation
  JOINT Chest
  {
    OFFSET 0 8.7983 -4.7612
    CHANNELS 3 Zrotation Xrotation Yrotation
    JOINT Chest2
    {
      OFFSET 0 8.0291 0.4195
      CHANNELS 3 Zrotation Xrotation Yrotation
      JOINT Chest3
      {
        OFFSET 0 9.9351 -2.2114
        CHANNELS 3 Zrotation Xrotation Yrotation
        JOINT Neck
        {
          OFFSET 0 22.3885 -0.4656
          CHANNELS 3 Zrotation Xrotation Yrotation
          JOINT Head
          {
            OFFSET -0.0001 12.643 3.4389
            CHANNELS 3 Zrotation Xrotation Yrotation
            End Site
            {
              OFFSET 0.0001 17.6655 0.5274
            }
          }
        }
        JOINT LeftCollar
        {
          OFFSET 2.2603 21.606 7.4023
          CHANNELS 3 Zrotation Xrotation Yrotation
          JOINT LeftShoulder
          {
            OFFSET 13.5163 -1.1332 -5.0146
            CHANNELS 3 Zrotation Xrotation Yrotation
            JOINT LeftElbow
            {
              OFFSET -0.0995 -28.05 -0.2431
              CHANNELS 3 Zrotation Xrotation Yrotation
              JOINT LeftWrist
              {
                OFFSET 0.0679 -23.3996 -0.1402
                CHANNELS 3 Zrotation Xrotation Yrotation
                JOINT LeftFinger1
                {
                  OFFSET 0.7932 -9.069 2.5189
                  CHANNELS 3 Zrotation Xrotation Yrotation
                  JOINT LeftFinger11
                  {
                    OFFSET -0.8272 -3.3923 0.5977
                    CHANNELS 3 Zrotation Xrotation Yrotation
                    JOINT LeftFinger12
                    {
                      OFFSET -0.5649 -2.3158 0.4082
                      CHANNELS 3 Zrotation Xrotation Yrotation
                      End Site
                      {
                        OFFSET -0.4919 -1.6479 0.2673
                      }
                    }
                  }
                }
                JOINT LeftFinger2
                {
                  OFFSET 0.9159 -9.2044 0.2193
                  CHANNELS 3 Zrotation Xrotation Yrotation
                  JOINT LeftFinger21
                  {
                    OFFSET 0.0117 -4.1944 -0.0248
                    CHANNELS 3 Zrotation Xrotation Yrotation
                    JOINT LeftFinger22
                    {
                      OFFSET 0.0071 -2.3249 -0.0142
                      CHANNELS 3 Zrotation Xrotation Yrotation
                      End Site
                      {
                        OFFSET -0.1475 -2.0882 0.0028
                      }
                    }
                  }
                }
                JOINT LeftFinger3
                {
                  OFFSET 0.6113 -8.7231 -2.0637
                  CHANNELS 3 Zrotation Xrotation Yrotation
                  JOINT LeftFinger31
                  {
                    OFFSET -0.1927 -3.8059 -0.2383
                    CHANNELS 3 Zrotation Xrotation Yrotation
                    JOINT LeftFinger32
                    {
                      OFFSET -0.1091 -2.1688 -0.1362
                      CHANNELS 3 Zrotation Xrotation Yrotation
                      End Site
                      {
                        OFFSET -0.2358 -1.9176 -0.0906
                      }
                    }
                  }
                }
                JOINT LeftFinger4
                {
                  OFFSET -0.6151 -8.0947 -3.5641
                  CHANNELS 3 Zrotation Xrotation Yrotation
                  JOINT LeftFinger41
                  {
                    OFFSET -0.4882 -2.341 -0.6462
                    CHANNELS 3 Zrotation Xrotation Yrotation
                    JOINT LeftFinger42
                    {
                      OFFSET -0.3575 -1.7167 -0.4742
                      CHANNELS 3 Zrotation Xrotation Yrotation
                      End Site
                      {
                        OFFSET -0.4187 -1.5237 -0.3496
                      }
                    }
                  }
                }
                JOINT LeftFinger0
                {
                  OFFSET -1.42 -1.8761 1.4223
                  CHANNELS 3 Zrotation Xrotation Yrotation
                  JOINT LeftFinger01
                  {
                    OFFSET -1.1471 -3.4929 2.6334
                    CHANNELS 3 Zrotation Xrotation Yrotation
                    JOINT LeftFinger02
                    {
                      OFFSET -0.823 -2.3 1.6571
                      CHANNELS 3 Zrotation Xrotation Yrotation
                      End Site
                      {
                        OFFSET -0.5822 -1.6914 1.1582
                      }
                    }
                  }
                }
              }
            }
          }
        }
        JOINT RightCollar
        {
          OFFSET -2.2603 21.606 7.4023
          CHANNELS 3 Zrotation Xrotation Yrotation
          JOINT RightShoulder
          {
            OFFSET -13.5187 -1.1334 -5.0155
            CHANNELS 3 Zrotation Xrotation Yrotation
            JOINT RightElbow
            {
              OFFSET 0.0994 -28.0499 -0.2431
              CHANNELS 3 Zrotation Xrotation Yrotation
              JOINT RightWrist
              {
                OFFSET -0.0679 -23.3996 -0.1402
                CHANNELS 3 Zrotation Xrotation Yrotation
                JOINT RightFinger1
                {
                  OFFSET -0.7932 -9.0691 2.5189
                  CHANNELS 3 Zrotation Xrotation Yrotation
                  JOINT RightFinger11
                  {
                    OFFSET 0.8272 -3.3923 0.5977
                    CHANNELS 3 Zrotation Xrotation Yrotation
                    JOINT RightFinger12
                    {
                      OFFSET 0.565 -2.3158 0.4082
                      CHANNELS 3 Zrotation Xrotation Yrotation
                      End Site
                      {
                        OFFSET 0.4919 -1.6479 0.2673
                      }
                    }
                  }
                }
                JOINT RightFinger2
                {
                  OFFSET -0.916 -9.2044 0.2193
                  CHANNELS 3 Zrotation Xrotation Yrotation
                  JOINT RightFinger21
                  {
                    OFFSET -0.0117 -4.1944 -0.0248
                    CHANNELS 3 Zrotation Xrotation Yrotation
                    JOINT RightFinger22
                    {
                      OFFSET -0.0071 -2.3249 -0.0142
                      CHANNELS 3 Zrotation Xrotation Yrotation
                      End Site
                      {
                        OFFSET 0.1475 -2.0882 0.0028
                      }
                    }
                  }
                }
                JOINT RightFinger3
                {
                  OFFSET -0.6113 -8.7231 -2.0637
                  CHANNELS 3 Zrotation Xrotation Yrotation
                  JOINT RightFinger31
                  {
                    OFFSET 0.1927 -3.8059 -0.2383
                    CHANNELS 3 Zrotation Xrotation Yrotation
                    JOINT RightFinger32
                    {
                      OFFSET 0.1091 -2.1688 -0.1362
                      CHANNELS 3 Zrotation Xrotation Yrotation
                      End Site
                      {
                        OFFSET 0.2358 -1.9176 -0.0906
                      }
                    }
                  }
                }
                JOINT RightFinger4
                {
                  OFFSET 0.6151 -8.0947 -3.564
                  CHANNELS 3 Zrotation Xrotation Yrotation
                  JOINT RightFinger41
                  {
                    OFFSET 0.4882 -2.341 -0.6462
                    CHANNELS 3 Zrotation Xrotation Yrotation
                    JOINT RightFinger42
                    {
                      OFFSET 0.3574 -1.7166 -0.4742
                      CHANNELS 3 Zrotation Xrotation Yrotation
                      End Site
                      {
                        OFFSET 0.4187 -1.5237 -0.3496
                      }
                    }
                  }
                }
                JOINT RightFinger0
                {
                  OFFSET 1.4199 -1.8761 1.4221
                  CHANNELS 3 Zrotation Xrotation Yrotation
                  JOINT RightFinger01
                  {
                    OFFSET 1.1472 -3.4929 2.6336
                    CHANNELS 3 Zrotation Xrotation Yrotation
                    JOINT RightFinger02
                    {
                      OFFSET 0.8229 -2.3 1.6571
                      CHANNELS 3 Zrotation Xrotation Yrotation
                      End Site
                      {
                        OFFSET 0.5822 -1.6914 1.1582
                      }
                    }
                  }
                }
              }
            }
          }
        }
      }
    }
  }
  JOINT RightHip
  {
    OFFSET -9.412 3.9771 -0.7758
    CHANNELS 3 Zrotation Xrotation Yrotation
    JOINT RightKnee
    {
      OFFSET -0.7531 -40.938 0
      CHANNELS 3 Zrotation Xrotation Yrotation
      JOINT RightAnkle
      {
        OFFSET 0 -40.1986 0
        CHANNELS 3 Zrotation Xrotation Yrotation
        JOINT RightToe
        {
          OFFSET 0 -4.4182 9.239
          CHANNELS 3 Zrotation Xrotation Yrotation
          End Site
          {
            OFFSET 0 0 6.1981
          }
        }
      }
    }
  }
  JOINT LeftHip
  {
    OFFSET 9.4119 3.9773 -0.7758
    CHANNELS 3 Zrotation Xrotation Yrotation
    JOINT LeftKnee
    {
      OFFSET 0.7532 -40.9383 0
      CHANNELS 3 Zrotation Xrotation Yrotation
      JOINT LeftAnkle
      {
        OFFSET 0 -40.1986 0
        CHANNELS 3 Zrotation Xrotation Yrotation
        JOINT LeftToe
        {
          OFFSET 0 -4.4182 9.239
          CHANNELS 3 Zrotation Xrotation Yrotation
          End Site
          {
            OFFSET 0 0 6.1981
          }
        }
      }
    }
  }
}
MOTION
Frames:	6
Frame Time:	0.0333333
1.59865 21.9667 24.164 -0.000227106 -13.4989 179.999 0.0080824 3.34494 -0.0491543 0.0190941 6.68987 -0.0990363 0.0190941 6.68989 -0.0990366 -2.55526e-007 33.1804 4.00106e-007 -5.08677 -10.4314 -0.926306 -26.8642 4.21386 -20.8654 69.0736 -24.9251 18.4183 -55.0827 -8.98909 -41.9364 66.8295 -30.3875 27.2055 -2.74661e-006 -3.06575e-007 1.38971e-006 0 0 -2.18663e-015 -7.87924e-007 -1.16376e-006 4.77393e-006 -2.74661e-006 -3.06575e-007 1.38971e-006 -0.0128177 0.00232869 8.67193e-005 1.25167e-006 1.53893e-006 7.70863e-006 -2.74661e-006 -3.06575e-007 1.38971e-006 -0.0160365 0.0029953 0.000851116 -1.59028e-015 -1.59028e-015 3.37934e-015 -2.74661e-006 -3.06575e-007 1.38971e-006 -0.0126011 0.00311537 0.00282801 -7.88554e-007 -1.02159e-006 4.77397e-006 -2.74661e-006 -3.06575e-007 1.38971e-006 0 0 -2.18663e-015 -7.87924e-007 -1.16376e-006 4.77393e-006 24.5963 -0.0430675 11.5216 -68.3035 -30.8326 -17.3789 60.9855 -12.6887 43.4781 -35.4991 0.615159 -60.8138 7.95139e-016 9.54166e-015 3.18055e-015 2.32811e-006 5.67203e-007 2.46032e-006 -7.07382e-007 -1.0906e-005 3.98378e-006 7.95139e-016 9.54166e-015 3.18055e-015 0.012999 0.00231594 -9.28926e-005 -6.26041e-008 1.635e-007 2.29943e-006 7.95139e-016 9.54166e-015 3.18055e-015 0.0163392 0.00303344 -0.000869075 1.10146e-006 3.58631e-007 3.52964e-006 7.95139e-016 9.54166e-015 3.18055e-015 0.0145683 0.00366867 -0.00325374 6.90599e-007 -1.04558e-006 2.24837e-006 7.95139e-016 9.54166e-015 3.18055e-015 2.32811e-006 5.67203e-007 2.46032e-006 -7.07382e-007 -1.0906e-005 3.98378e-006 -7.73639 -31.3239 -24.0414 -173.977 59.2586 170.227 16.5447 33.9981 -27.7604 -4.72594e-006 8.01321e-006 -1.47695e-006 9.93865 -32.1596 21.4149 173.717 58.0186 -169.781 -17.862 35.8485 24.3386 7.48799e-006 2.30385e-006 2.10761e-007 
1.59859 21.9437 24.3054 -0.000235877 -14.0001 179.999 0.00846765 3.4002 -0.0491414 0.0199155 6.8004 -0.0990498 0.0199156 6.80042 -0.0990499 1.1172e-006 33.5892 -1.64355e-006 -5.083 -10.1969 -0.905124 -27.2479 3.2546 -20.4586 69.0736 -24.9251 18.4183 -55.5907 -9.05756 -42.0462 66.3889 -30.8925 26.4055 2.62813e-006 -1.95442e-006 -5.78259e-006 7.72434e-032 1.59028e-015 -2.78299e-015 -2.62813e-006 1.95442e-006 5.78259e-006 2.62813e-006 -1.95442e-006 -5.78259e-006 -0.0128246 0.00232634 7.9972e-005 -4.77083e-015 -2.38542e-015 2.5842e-015 2.62813e-006 -1.95442e-006 -5.78259e-006 -0.0160268 0.00298925 0.000858088 -1.10348e-032 1.59028e-015 3.97569e-016 2.62813e-006 -1.95442e-006 -5.78259e-006 -0.0125811 0.00311425 0.0028215 -3.57509e-006 -3.15633e-007 1.32163e-006 2.62813e-006 -1.95442e-006 -5.78259e-006 7.72434e-032 1.59028e-015 -2.78299e-015 -2.62813e-006 1.95442e-006 5.78259e-006 24.8692 -0.959046 11.2035 -68.3035 -30.8326 -17.3789 61.6692 -12.7816 43.6635 -35.5608 0.741352 -60.0651 2.79491e-006 5.19446e-007 1.44346e-006 2.32751e-006 3.12172e-007 2.46038e-006 1.1e-006 4.13837e-007 3.52988e-006 2.79491e-006 5.19446e-007 1.44346e-006 0.0129266 0.00230587 -8.37414e-005 -6.45556e-007 -9.33804e-008 1.68456e-006 2.79491e-006 5.19446e-007 1.44346e-006 0.0163504 0.00304794 -0.000874755 4.78234e-006 -4.2479e-006 3.2165e-007 2.79491e-006 5.19446e-007 1.44346e-006 0.0145878 0.00367319 -0.00325994 3.61862e-006 5.20077e-006 -9.08525e-007 2.79491e-006 5.19446e-007 1.44346e-006 2.32751e-006 3.12172e-007 2.46038e-006 1.1e-006 4.13837e-007 3.52988e-006 -7.85434 -31.9712 -24.2147 -173.981 59.2289 170.229 16.546 33.9988 -27.7627 -6.95783e-006 5.00343e-006 6.67381e-007 10.0506 -32.814 21.5805 173.717 58.0169 -169.781 -17.8625 35.8508 24.3394 -7.14725e-007 5.67721e-006 1.67007e-006 
1.59853 21.9213 24.4469 -0.000244685 -14.5012 179.999 0.00885299 3.4555 -0.049128 0.0207374 6.91098 -0.0990633 0.0207374 6.91101 -0.0990635 -9.90321e-009 33.9971 -1.27109e-008 -5.07931 -9.96258 -0.88398 -27.6242 2.29286 -20.0589 69.0736 -24.9251 18.4183 -56.099 -9.12511 -42.1567 65.9378 -31.392 25.5969 -7.2676e-006 -1.40296e-005 -1.75309e-006 -3.98407e-006 1.24718e-005 8.89728e-006 -5.61118e-006 -3.5922e-006 -1.6188e-006 -7.2676e-006 -1.40296e-005 -1.75309e-006 -0.012828 0.00231728 9.79571e-005 3.02526e-007 1.74863e-005 3.24714e-006 -7.2676e-006 -1.40296e-005 -1.75309e-006 -0.0160503 0.00300827 0.000869438 4.77083e-015 1.59028e-015 -7.95139e-016 -7.2676e-006 -1.40296e-005 -1.75309e-006 -0.0125807 0.0031213 0.00282861 -2.74733e-006 -2.91701e-007 1.3884e-006 -7.2676e-006 -1.40296e-005 -1.75309e-006 -3.98407e-006 1.24718e-005 8.89728e-006 -5.61118e-006 -3.5922e-006 -1.6188e-006 25.1371 -1.87639 10.8898 -68.3035 -30.8326 -17.3789 62.3534 -12.8723 43.8502 -35.6241 0.866714 -59.3164 7.95139e-016 0 7.95139e-016 -7.95139e-016 6.36111e-015 1.59028e-015 -7.95139e-016 0 7.95139e-016 7.95139e-016 0 7.95139e-016 0.0129357 0.00230603 -8.05209e-005 -3.97569e-015 -3.18055e-015 7.95139e-015 7.95139e-016 0 7.95139e-016 0.0163192 0.00304393 -0.000866644 3.10251e-006 -2.22274e-006 -3.82468e-006 7.95139e-016 0 7.95139e-016 0.0145525 0.00367497 -0.00324997 -1.75546e-006 1.13736e-006 4.38542e-006 7.95139e-016 0 7.95139e-016 -7.95139e-016 6.36111e-015 1.59028e-015 -7.95139e-016 0 7.95139e-016 -7.97521 -32.6189 -24.3907 -173.986 59.1983 170.23 16.5473 33.9993 -27.7649 -4.76835e-007 -4.40339e-008 -6.88136e-007 10.1662 -33.4663 21.7491 173.717 58.0169 -169.78 -17.8631 35.8531 24.3403 7.26348e-006 8.43147e-006 -2.88648e-006 
1.59848 21.8995 24.5885 -0.000253532 -15.0023 179.999 0.00923831 3.51078 -0.0491136 0.0215592 7.02153 -0.0990752 0.0215593 7.02155 -0.0990756 0.221015 32.361 0.513824 -4.81167 -11.0138 -1.31317 -27.9934 1.3291 -19.6658 69.0735 -24.925 18.4182 -56.6074 -9.19169 -42.2678 65.4762 -31.8858 24.7796 -3.18055e-015 -3.97569e-015 2.38542e-015 -3.18055e-015 -1.59028e-015 2.98177e-015 -3.18055e-015 -3.18055e-015 3.18055e-015 -3.18055e-015 -3.97569e-015 2.38542e-015 -0.0128259 0.00232937 7.81262e-005 -3.18055e-015 -7.95139e-016 2.38542e-015 -3.18055e-015 -3.97569e-015 2.38542e-015 -0.0160699 0.00299936 0.000863058 -3.18055e-015 2.38542e-015 -6.36111e-015 -3.18055e-015 -3.97569e-015 2.38542e-015 -0.0125819 0.00311931 0.00282657 -1.59028e-015 0 1.98785e-016 -3.18055e-015 -3.97569e-015 2.38542e-015 -3.18055e-015 -1.59028e-015 2.98177e-015 -3.18055e-015 -3.18055e-015 3.18055e-015 25.4 -2.79472 10.5803 -68.3036 -30.8327 -17.3789 63.038 -12.9608 44.0379 -35.6891 0.99118 -58.5677 4.77083e-015 9.54166e-015 -7.15625e-015 5.56597e-015 3.18055e-015 -0 2.38542e-015 -9.54166e-015 -3.18055e-015 4.77083e-015 9.54166e-015 -7.15625e-015 0.0129492 0.00232362 -8.20726e-005 -6.62086e-031 1.59028e-014 2.38542e-015 4.77083e-015 9.54166e-015 -7.15625e-015 0.0163316 0.00303564 -0.000873323 3.18055e-015 6.36111e-015 -5.56597e-015 4.77083e-015 9.54166e-015 -7.15625e-015 0.0146013 0.00368489 -0.00326731 -3.97569e-015 1.59028e-014 3.97569e-015 4.77083e-015 9.54166e-015 -7.15625e-015 5.56597e-015 3.18055e-015 -0 2.38542e-015 -9.54166e-015 -3.18055e-015 -8.0994 -33.2657 -24.5696 -173.99 59.1682 170.232 16.5486 33.9998 -27.7672 -4.77823e-007 -4.39599e-008 -6.87089e-007 10.2845 -34.1198 21.9202 173.717 58.0154 -169.78 -17.8636 35.8554 24.3411 4.69229e-007 4.03862e-006 6.92442e-007 
1.59842 21.8783 24.7302 -0.00026242 -15.5033 179.999 0.00962328 3.56602 -0.0490978 0.0223805 7.13203 -0.099086 0.0223806 7.13204 -0.0990863 0.457157 30.7138 1.03011 -4.55021 -12.0705 -1.7404 -28.3557 0.363614 -19.2793 69.0735 -24.925 18.4183 -57.116 -9.25721 -42.3794 65.0041 -32.3736 23.9536 1.59028e-015 -1.59028e-015 -9.93923e-016 6.77724e-006 -5.55219e-006 -5.45596e-006 -1.59028e-015 -2.38542e-015 4.37326e-015 1.59028e-015 -1.59028e-015 -9.93923e-016 -0.0128335 0.00232204 7.74424e-005 -3.18055e-015 7.95139e-016 -1.19271e-015 1.59028e-015 -1.59028e-015 -9.93923e-016 -0.0160502 0.00298711 0.000853738 1.59028e-015 7.95139e-016 -8.94531e-015 1.59028e-015 -1.59028e-015 -9.93923e-016 -0.0125884 0.00311478 0.00282237 1.60004e-031 -1.59028e-015 5.76476e-015 1.59028e-015 -1.59028e-015 -9.93923e-016 6.77724e-006 -5.55219e-006 -5.45596e-006 -1.59028e-015 -2.38542e-015 4.37326e-015 25.658 -3.71384 10.275 -68.3036 -30.8327 -17.3789 63.7229 -13.047 44.2267 -35.7556 1.11474 -57.8191 1.87744e-006 -2.43579e-006 3.47056e-006 1.59028e-015 -1.27222e-014 3.18055e-015 4.77083e-015 -1.59028e-014 2.38542e-015 1.87744e-006 -2.43579e-006 3.47056e-006 0.0129127 0.00230228 -8.28521e-005 7.13019e-007 1.37318e-006 -3.98736e-006 1.87744e-006 -2.43579e-006 3.47056e-006 0.0163212 0.00303291 -0.000869733 -1.59028e-015 -6.36111e-015 1.59028e-015 1.87744e-006 -2.43579e-006 3.47056e-006 0.0145672 0.00366795 -0.00325718 0 9.54166e-015 -0 1.87744e-006 -2.43579e-006 3.47056e-006 1.59028e-015 -1.27222e-014 3.18055e-015 4.77083e-015 -1.59028e-014 2.38542e-015 -8.22698 -33.9117 -24.7515 -173.994 59.1385 170.234 16.55 34.0007 -27.7695 -2.60173e-006 3.30629e-006 -1.05906e-006 10.4063 -34.7725 22.0944 173.718 58.0142 -169.78 -17.8642 35.8578 24.342 4.70777e-007 8.21591e-006 6.91066e-007 
1.59837 21.8577 24.872 -0.00027135 -16.0042 179.999 0.0100078 3.62123 -0.0490811 0.0232009 7.24245 -0.0990954 0.023201 7.24248 -0.0990957 0.708308 29.0562 1.54956 -4.29496 -13.1325 -2.16579 -28.7111 -0.603332 -18.8993 69.0736 -24.9251 18.4183 -57.6248 -9.32178 -42.4916 64.5213 -32.8553 23.1187 1.19818e-006 -8.05612e-006 -1.23414e-005 -1.59028e-015 -1.59028e-015 5.1684e-015 -3.18055e-015 7.95139e-016 5.56597e-015 1.19818e-006 -8.05612e-006 -1.23414e-005 -0.0128095 0.00233947 9.38393e-005 1.59028e-015 -1.59028e-015 -5.76476e-015 1.19818e-006 -8.05612e-006 -1.23414e-005 -0.0160208 0.00299362 0.000857541 -1.59028e-015 3.18055e-015 -4.77083e-015 1.19818e-006 -8.05612e-006 -1.23414e-005 -0.0125937 0.00312862 0.00284286 -3.01264e-006 -3.04667e-007 -1.22511e-005 1.19818e-006 -8.05612e-006 -1.23414e-005 -1.59028e-015 -1.59028e-015 5.1684e-015 -3.18055e-015 7.95139e-016 5.56597e-015 25.9113 -4.63355 9.97367 -68.3035 -30.8326 -17.3789 64.4081 -13.1311 44.4167 -35.8237 1.23734 -57.0706 2.38542e-015 3.18055e-015 3.97569e-015 -1.59028e-015 3.18055e-015 1.59028e-015 -1.76556e-031 3.18055e-015 3.18055e-015 2.38542e-015 3.18055e-015 3.97569e-015 0.0129514 0.00233106 -8.67771e-005 3.48515e-006 -1.82486e-006 -2.53879e-006 2.38542e-015 3.18055e-015 3.97569e-015 0.0163098 0.00303408 -0.000872133 2.90342e-006 3.90443e-006 -3.15345e-006 2.38542e-015 3.18055e-015 3.97569e-015 0.0145784 0.00368061 -0.00326269 2.96927e-006 2.7189e-007 -5.45526e-006 2.38542e-015 3.18055e-015 3.97569e-015 -1.59028e-015 3.18055e-015 1.59028e-015 -1.76556e-031 3.18055e-015 3.18055e-015 -8.35792 -34.5571 -24.9364 -173.998 59.1087 170.235 16.5513 34.0012 -27.7717 6.82856e-007 -7.56321e-007 -1.68703e-006 10.5314 -35.4244 22.2716 173.718 58.0133 -169.78 -17.8647 35.8602 24.3429 3.97569e-015 -3.18055e-015 -6.36111e-015 
